<svg id="Capa_1" enable-background="new 0 0 512 512" height="512" viewBox="0 0 512 512" width="512" xmlns="http://www.w3.org/2000/svg"><g><path d="m221.245 100.776c-16.216 0-30.668-3.511-39.801-6.396-4.476-1.414-7.962-4.754-9.568-9.165-1.605-4.411-1.081-9.211 1.439-13.17 8.432-13.25 26.743-36.993 54.638-47.147 27.896-10.151 57.184-3.733 72.161.996 4.475 1.413 7.962 4.753 9.567 9.164s1.082 9.211-1.438 13.171c-8.433 13.25-26.746 36.995-54.639 47.147-10.884 3.962-21.983 5.399-32.359 5.4z" fill="#00da80"/><g><path d="m175 152.003c-8.284 0-15-6.716-15-15v-54.349c0-22.688-12.349-43.574-32.229-54.508-7.259-3.992-9.907-13.113-5.915-20.372 3.992-7.258 13.114-9.908 20.372-5.915 29.467 16.207 47.772 47.165 47.772 80.795v54.349c0 8.284-6.716 15-15 15z" fill="#bee75e"/><path d="m175 152.003c8.284 0 15-6.716 15-15v-54.349c0-18.225-5.385-35.659-15-50.392z" fill="#00da80"/></g><path d="m175 512c-24.105 0-47.727-7.099-70.209-21.1-20.401-12.705-38.935-30.482-55.086-52.836-31.588-43.719-49.705-98.779-49.705-151.064 0-51.388 17.996-94.135 52.043-123.619 31.262-27.071 73.78-41.381 122.957-41.381s91.695 14.31 122.957 41.381c34.047 29.484 52.043 72.231 52.043 123.619 0 52.285-18.117 107.345-49.705 151.064-16.151 22.354-34.685 40.131-55.086 52.836-22.482 14.001-46.104 21.1-70.209 21.1z" fill="#ff6378"/><g fill="#e20059"><path d="m245.209 490.9c20.401-12.705 38.935-30.482 55.086-52.836 31.588-43.719 49.705-98.779 49.705-151.064 0-51.388-17.996-94.135-52.043-123.619-31.262-27.071-73.78-41.381-122.957-41.381v390c24.105 0 47.727-7.099 70.209-21.1z"/><circle cx="175" cy="447" r="15"/><circle cx="175" cy="347" r="15"/><circle cx="175" cy="247" r="15"/><circle cx="125" cy="397" r="15"/><circle cx="85" cy="347" r="15"/><circle cx="85" cy="247" r="15"/><circle cx="125" cy="297" r="15"/><circle cx="135" cy="197" r="15"/></g><path d="m190 247c0-8.284-6.716-15-15-15v30c8.284 0 15-6.716 15-15z" fill="#86335c"/><path d="m190 347c0-8.284-6.716-15-15-15v30c8.284 0 15-6.716 15-15z" fill="#86335c"/><path d="m190 447c0-8.284-6.716-15-15-15v30c8.284 0 15-6.716 15-15z" fill="#86335c"/><path d="m464.346 392h-218.25c-5.848 0-11.163-3.399-13.616-8.708-14.354-31.061-22.259-65.258-22.259-96.292 0-66.548 33.296-99.182 61.229-114.84 31.292-17.541 65.917-20.16 83.771-20.16s52.48 2.619 83.771 20.16c27.932 15.658 61.229 48.292 61.229 114.84 0 31.035-7.905 65.232-22.259 96.292-2.453 5.309-7.768 8.708-13.616 8.708z" fill="#f9f9f9"/><path d="m438.992 172.16c-31.291-17.541-65.916-20.16-83.771-20.16v240h109.125c5.848 0 11.163-3.399 13.616-8.708 14.354-31.061 22.259-65.258 22.259-96.292 0-66.548-33.297-99.182-61.229-114.84z" fill="#e2dff4"/><path d="m355.221 512c-32.822 0-65.305-13.471-93.937-38.957-25.78-22.947-47.134-54.217-61.751-90.429-1.866-4.623-1.313-9.872 1.476-14.004 2.789-4.133 7.448-6.61 12.434-6.61h283.557c4.986 0 9.646 2.477 12.434 6.61 2.789 4.133 3.342 9.381 1.476 14.004-14.618 36.211-35.971 67.481-61.752 90.429-28.633 25.486-61.116 38.957-93.937 38.957z" fill="#ff6378"/><path d="m497 362h-141.779v150c32.822 0 65.304-13.471 93.937-38.957 25.781-22.947 47.134-54.217 61.752-90.429 1.866-4.623 1.313-9.872-1.476-14.004-2.788-4.133-7.448-6.61-12.434-6.61z" fill="#e20059"/><circle cx="355.221" cy="432" fill="#e20059" r="15"/><path d="m355.221 417v30c8.284 0 15-6.716 15-15s-6.716-15-15-15z" fill="#86335c"/></g></svg>